<svg width="48" height="48" viewBox="0 0 48 48" fill="none" xmlns="http://www.w3.org/2000/svg">
<rect x="0.803406" y="0.802734" width="46.7192" height="46.7192" rx="10.6178" fill="url(#paint0_linear_81_335)"/>
<path d="M33.0418 23.7158C33.058 22.4597 33.3916 21.2281 34.0117 20.1356C34.6318 19.0431 35.5181 18.1252 36.5882 17.4673C35.9084 16.4964 35.0115 15.6974 33.9689 15.1337C32.9262 14.57 31.7665 14.2572 30.5818 14.2202C28.0547 13.9549 25.6048 15.7323 24.317 15.7323C23.0043 15.7323 21.0216 14.2465 18.8865 14.2904C17.5055 14.335 16.1596 14.7366 14.9799 15.4561C13.8002 16.1755 12.827 17.1883 12.1551 18.3956C9.2446 23.4347 11.4156 30.8405 14.2036 34.9138C15.5985 36.9083 17.2288 39.1363 19.3619 39.0573C21.4493 38.9707 22.229 37.7262 24.7486 37.7262C27.2449 37.7262 27.9764 39.0573 30.1528 39.007C32.3927 38.9707 33.8039 37.0036 35.1499 34.9902C36.1522 33.569 36.9234 31.9983 37.435 30.3362C36.1337 29.7858 35.0232 28.8645 34.2419 27.6872C33.4607 26.51 33.0433 25.1287 33.0418 23.7158Z" fill="white"/>
<path d="M28.9314 11.5412C30.1527 10.0751 30.7543 8.19066 30.6086 6.28809C28.7428 6.48406 27.0193 7.37581 25.7815 8.78567C25.1763 9.47442 24.7128 10.2757 24.4175 11.1437C24.1221 12.0117 24.0008 12.9294 24.0603 13.8443C24.9936 13.8539 25.9168 13.6516 26.7606 13.2527C27.6043 12.8537 28.3466 12.2686 28.9314 11.5412Z" fill="white"/>
<defs>
<linearGradient id="paint0_linear_81_335" x1="24.163" y1="47.1654" x2="24.163" y2="0.813747" gradientUnits="userSpaceOnUse">
<stop stop-color="#111111"/>
<stop offset="1" stop-color="#333333"/>
</linearGradient>
</defs>
</svg>
