<svg width="30" height="33" viewBox="0 0 30 33" fill="none" xmlns="http://www.w3.org/2000/svg">
<path d="M1.12234 0.511881C0.707808 1.0093 0.498579 1.64608 0.537301 2.29242V30.425C0.498579 31.0713 0.707808 31.7081 1.12234 32.2055L1.21136 32.2945L16.9692 16.5495V16.1806L1.21136 0.422852L1.12234 0.511881Z" fill="url(#paint0_linear_81_323)"/>
<path d="M22.1846 21.8018L16.9701 16.5492V16.1804L22.1846 10.915L22.299 10.9786L28.5436 14.527C30.3242 15.5317 30.3242 17.1851 28.5436 18.2025L22.3245 21.7382L22.1846 21.8018Z" fill="url(#paint1_linear_81_323)"/>
<path d="M22.3371 21.7255L16.9701 16.3584L1.12326 32.2052C1.48619 32.5242 1.94917 32.7065 2.43219 32.7204C2.91521 32.7343 3.38792 32.5791 3.76864 32.2815L22.3499 21.7255" fill="url(#paint2_linear_81_323)"/>
<path d="M22.3358 10.9909L3.75454 0.434874C3.37382 0.137287 2.90111 -0.0179535 2.41809 -0.00402026C1.93507 0.009913 1.47209 0.192146 1.10916 0.511184L16.9687 16.358L22.3358 10.9909Z" fill="url(#paint3_linear_81_323)"/>
<path opacity="0.2" d="M22.1845 21.6104L3.75589 32.1028C3.3887 32.3774 2.94254 32.5257 2.48407 32.5257C2.0256 32.5257 1.57944 32.3774 1.21226 32.1028L1.12323 32.1919L1.21226 32.2809C1.57861 32.5574 2.02509 32.7069 2.48407 32.7069C2.94305 32.7069 3.38953 32.5574 3.75589 32.2809L22.3371 21.7248L22.1845 21.6104Z" fill="black"/>
<path opacity="0.12" d="M1.12228 32.0272C0.707747 31.5297 0.498518 30.893 0.53724 30.2466V30.4374C0.498518 31.0837 0.707747 31.7205 1.12228 32.2179L1.2113 32.1289L1.12228 32.0272ZM28.5426 18.0118L22.1835 21.611L22.298 21.7255L28.5426 18.1898C28.8969 18.0234 29.2011 17.7664 29.4244 17.4449C29.6477 17.1233 29.7822 16.7485 29.8144 16.3584C29.7429 16.7129 29.5911 17.0462 29.3706 17.3328C29.1501 17.6194 28.8669 17.8517 28.5426 18.0118Z" fill="black"/>
<path opacity="0.25" d="M3.75495 0.613509L28.5426 14.7052C28.8669 14.8653 29.1501 15.0975 29.3706 15.3841C29.5911 15.6708 29.7429 16.0041 29.8144 16.3586C29.7822 15.9684 29.6477 15.5937 29.4244 15.2721C29.2011 14.9506 28.897 14.6936 28.5426 14.5272L3.75495 0.435453C1.97441 -0.56928 0.524536 0.270119 0.524536 2.30502V2.49579C0.562691 0.448172 1.98713 -0.391225 3.75495 0.613509Z" fill="white"/>
<defs>
<linearGradient id="paint0_linear_81_323" x1="15.5702" y1="1.9999" x2="-5.77089" y2="23.341" gradientUnits="userSpaceOnUse">
<stop stop-color="#00A0FF"/>
<stop offset="0.01" stop-color="#00A1FF"/>
<stop offset="0.26" stop-color="#00BEFF"/>
<stop offset="0.51" stop-color="#00D2FF"/>
<stop offset="0.76" stop-color="#00DFFF"/>
<stop offset="1" stop-color="#00E3FF"/>
</linearGradient>
<linearGradient id="paint1_linear_81_323" x1="30.8711" y1="16.3584" x2="0.105849" y2="16.3584" gradientUnits="userSpaceOnUse">
<stop stop-color="#FFE000"/>
<stop offset="0.41" stop-color="#FFBD00"/>
<stop offset="0.78" stop-color="#FFA500"/>
<stop offset="1" stop-color="#FF9C00"/>
</linearGradient>
<linearGradient id="paint2_linear_81_323" x1="19.4247" y1="19.2836" x2="-9.52181" y2="48.2174" gradientUnits="userSpaceOnUse">
<stop stop-color="#FF3A44"/>
<stop offset="1" stop-color="#C31162"/>
</linearGradient>
<linearGradient id="paint3_linear_81_323" x1="-2.87162" y1="-8.84937" x2="10.05" y2="4.07227" gradientUnits="userSpaceOnUse">
<stop stop-color="#32A071"/>
<stop offset="0.07" stop-color="#2DA771"/>
<stop offset="0.48" stop-color="#15CF74"/>
<stop offset="0.8" stop-color="#06E775"/>
<stop offset="1" stop-color="#00F076"/>
</linearGradient>
</defs>
</svg>
